<?xml version="1.0" standalone="no"?>
<!DOCTYPE svg PUBLIC "-//W3C//DTD SVG 20010904//EN"
 "http://www.w3.org/TR/2001/REC-SVG-20010904/DTD/svg10.dtd">
<svg version="1.0" xmlns="http://www.w3.org/2000/svg"
 width="85.000000pt" height="76.000000pt" viewBox="0 0 85.000000 76.000000"
 preserveAspectRatio="xMidYMid meet">
<metadata>
Created by potrace 1.10, written by Peter Selinger 2001-2011
</metadata>
<g transform="translate(0.000000,76.000000) scale(0.100000,-0.100000)"
fill="#000000" stroke="none">
<path d="M616 674 c-22 -8 -47 -20 -55 -28 -9 -7 -42 -16 -74 -19 -148 -14
-286 -134 -290 -251 -4 -88 63 -112 158 -57 28 16 57 36 64 45 7 9 23 16 35
16 11 0 41 9 65 20 24 11 39 15 34 8 -6 -7 -35 -47 -66 -88 -55 -75 -110 -132
-157 -164 -13 -9 -20 -16 -14 -16 6 0 38 18 71 39 63 41 115 101 176 206 48
82 107 149 120 136 18 -18 2 -125 -27 -184 -38 -78 -116 -160 -182 -193 -64
-31 -174 -44 -199 -24 -11 9 -19 10 -27 2 -7 -7 3 -12 37 -17 152 -23 300 63
381 224 25 47 29 68 29 134 0 67 2 77 18 77 10 0 29 12 43 27 18 20 24 35 22
64 -2 20 -5 36 -7 33 -2 -2 -13 3 -25 11 -26 19 -79 18 -130 -1z m123 -3 c11
-7 5 -19 -32 -55 -44 -45 -69 -48 -47 -5 7 11 9 23 7 26 -3 2 -8 -5 -12 -17
-5 -15 -12 -19 -23 -15 -10 4 -30 12 -45 17 -26 10 -27 11 -10 23 45 31 132
45 162 26z m31 -51 c0 -10 -12 -28 -27 -40 -16 -12 -22 -18 -14 -14 9 5 12 3
7 -5 -4 -6 -16 -9 -27 -6 -10 4 -19 3 -19 -2 0 -4 -9 -14 -21 -21 -19 -12 -19
-12 -8 10 17 33 91 108 101 102 4 -3 8 -14 8 -24z m-250 -9 c0 -5 -7 -14 -15
-21 -8 -7 -15 -17 -15 -24 0 -6 10 4 23 21 12 18 27 33 32 33 27 0 84 -22 99
-39 16 -17 15 -21 -20 -67 -44 -60 -78 -90 -123 -109 -55 -24 -63 -19 -36 21
13 19 27 44 30 55 4 10 15 19 26 19 29 0 70 24 99 57 l25 28 -30 -27 c-31 -27
-74 -48 -101 -48 -11 0 -13 6 -9 20 5 15 3 18 -9 14 -10 -4 -14 -14 -11 -28 3
-12 -6 -42 -23 -71 -24 -44 -31 -50 -57 -48 -25 2 -27 0 -12 -8 24 -14 9 -33
-55 -65 -52 -26 -79 -30 -109 -14 -22 12 -26 61 -8 107 15 40 74 109 122 142
65 45 177 78 177 52z"/>
<path d="M56 137 c-16 -12 -16 -14 -2 -26 12 -10 38 -12 91 -9 72 5 95 11 83
24 -4 3 -15 1 -26 -5 -26 -14 -139 -14 -147 -1 -9 14 40 23 98 17 34 -4 44 -3
27 3 -39 13 -104 11 -124 -3z"/>
</g>
</svg>
